HIERARCHY
ROOT Hips
{
 OFFSET 0.000000 0.000000 0.000000
 CHANNELS 6 Xposition Yposition Zposition Yrotation Xrotation Zrotation
 JOINT Chest
 {
  OFFSET 0.000000 9.910571 -0.011835
  CHANNELS 3 Yrotation Xrotation Zrotation
  JOINT Chest2
  {
   OFFSET 0.000000 10.789473 0.021497
   CHANNELS 3 Yrotation Xrotation Zrotation
   JOINT Chest3
   {
    OFFSET 0.000000 9.748205 0.000000
    CHANNELS 3 Yrotation Xrotation Zrotation
    JOINT Chest4
    {
     OFFSET 0.000000 9.748205 0.000000
     CHANNELS 3 Yrotation Xrotation Zrotation
     JOINT Neck
     {
      OFFSET 0.000000 13.998479 0.000000
      CHANNELS 3 Yrotation Xrotation Zrotation
      JOINT Head
      {
       OFFSET 0.000000 9.082285 0.051121
       CHANNELS 3 Yrotation Xrotation Zrotation
       End Site
       {
        OFFSET 0.000000 17.246134 0.026702
       }
      }
     }
     JOINT RightCollar
     {
      OFFSET -3.284495 7.824262 0.000000
      CHANNELS 3 Yrotation Xrotation Zrotation
      JOINT RightShoulder
      {
       OFFSET -15.534540 0.000000 0.000000
       CHANNELS 3 Yrotation Xrotation Zrotation
       JOINT RightElbow
       {
        OFFSET 0.000000 -28.251216 0.000000
        CHANNELS 3 Yrotation Xrotation Zrotation
        JOINT RightWrist
        {
         OFFSET 0.000000 -23.418114 0.012537
         CHANNELS 3 Yrotation Xrotation Zrotation
         End Site
         {
          OFFSET 0.000000 -17.723959 0.000000
         }
        }
       }
      }
     }
     JOINT LeftCollar
     {
      OFFSET 3.284495 7.824262 0.000000
      CHANNELS 3 Yrotation Xrotation Zrotation
      JOINT LeftShoulder
      {
       OFFSET 15.534540 0.000000 0.000000
       CHANNELS 3 Yrotation Xrotation Zrotation
       JOINT LeftElbow
       {
        OFFSET 0.000000 -28.251216 0.000000
        CHANNELS 3 Yrotation Xrotation Zrotation
        JOINT LeftWrist
        {
         OFFSET 0.000000 -23.418114 0.012537
         CHANNELS 3 Yrotation Xrotation Zrotation
         End Site
         {
          OFFSET 0.000000 -17.723959 0.000000
         }
        }
       }
      }
     }
    }
   }
  }
 }
 JOINT RightHip
 {
  OFFSET -8.142657 0.057990 0.005917
  CHANNELS 3 Yrotation Xrotation Zrotation
  JOINT RightKnee
  {
   OFFSET 0.000000 -49.716894 0.008478
   CHANNELS 3 Yrotation Xrotation Zrotation
   JOINT RightAnkle
   {
    OFFSET 0.000000 -43.994153 0.004166
    CHANNELS 3 Yrotation Xrotation Zrotation
    JOINT RightToe
    {
     OFFSET 0.000000 -7.619154 17.822051
     CHANNELS 3 Yrotation Xrotation Zrotation
     End Site
     {
      OFFSET 0.000000 -1.595627 7.159905
     }
    }
   }
  }
 }
 JOINT LeftHip
 {
  OFFSET 8.142657 0.057990 0.005917
  CHANNELS 3 Yrotation Xrotation Zrotation
  JOINT LeftKnee
  {
   OFFSET 0.000000 -49.716894 0.008478
   CHANNELS 3 Yrotation Xrotation Zrotation
   JOINT LeftAnkle
   {
    OFFSET 0.000000 -43.994153 0.004166
    CHANNELS 3 Yrotation Xrotation Zrotation
    JOINT LeftToe
    {
     OFFSET 0.000000 -7.619154 17.822051
     CHANNELS 3 Yrotation Xrotation Zrotation
     End Site
     {
      OFFSET 0.000000 -1.595627 7.159905
     }
    }
   }
  }
 }
}
MOTION
Frames: 14
Frame Time: 0.008333
247.867580 57.301272 255.245078 -51.782158 -54.059063 0.500580 -3.570527 21.486549 -2.875940 -1.399255 9.499863 -1.462319 -1.399255 9.499863 -1.462319 -1.024112 7.128326 -1.072289 -9.910384 17.092063 -2.322183 -17.523527 -4.174228 -0.887438 0.283350 10.909038 12.086900 28.582878 -22.103290 -22.162444 11.389125 -36.774322 6.316646 27.624054 -8.541121 -20.356822 -0.866889 11.814777 -11.212934 -16.659412 -22.396994 21.288402 -12.622359 -61.755148 34.909495 -38.126445 -22.980527 -26.761039 -16.380936 -21.476211 -5.412956 -10.436561 34.425696 -14.587346 4.600709 28.906878 6.371529 -0.521341 1.315080 -0.221879 18.284950 -29.896532 3.136234 96.547654 89.042587 92.304249 -29.440655 -6.647905 -22.094353 -0.160365 -0.200572 -0.098333
247.874711 57.253461 255.254863 -51.785660 -54.067810 0.566508 -3.588672 21.479306 -2.943164 -1.398176 9.496920 -1.463179 -1.398176 9.496920 -1.463179 -1.023300 7.126118 -1.072958 -9.910291 17.102194 -2.333132 -17.518901 -4.156904 -0.908826 0.287572 10.919155 12.075339 28.549043 -22.110873 -22.131430 11.401676 -36.764148 6.315595 27.629270 -8.549656 -20.363808 -0.857609 11.831204 -11.222672 -16.659094 -22.401338 21.280541 -12.517633 -61.704982 34.790469 -38.176800 -23.028370 -26.700461 -16.357745 -21.476460 -5.482020 -10.435195 34.425498 -14.588352 4.557877 28.986171 6.336139 -0.472141 1.232969 -0.204213 18.313825 -29.884445 3.059849 97.380459 89.026855 93.121964 -29.445363 -6.642219 -22.072437 -0.155863 -0.195217 -0.095969
247.877380 57.243871 255.257462 -51.796314 -54.067224 0.583430 -3.584057 21.467792 -2.956019 -1.396987 9.494232 -1.464935 -1.396987 9.494232 -1.464935 -1.022391 7.124103 -1.074298 -9.905965 17.112360 -2.339252 -17.508122 -4.139256 -0.922745 0.284562 10.925998 12.074513 28.521980 -22.104734 -22.105337 11.415120 -36.764616 6.306699 27.622633 -8.552504 -20.354685 -0.842788 11.845988 -11.224184 -16.666166 -22.400217 21.277007 -12.552352 -61.701209 34.802362 -38.178433 -23.006187 -26.685783 -16.358198 -21.481025 -5.495761 -10.429719 34.426021 -14.585256 4.575475 28.999237 6.352540 -0.486413 1.219214 -0.213919 18.325852 -29.885153 3.047540 97.556270 89.024641 93.292933 -29.449147 -6.633598 -22.053756 -0.153141 -0.195607 -0.094186
247.876207 57.254069 255.257926 -51.779458 -54.080987 0.555638 -3.583605 21.465724 -2.942807 -1.396301 9.489707 -1.465208 -1.396301 9.489707 -1.465208 -1.021886 7.120708 -1.074526 -9.902922 17.125701 -2.349407 -17.498115 -4.116141 -0.944037 0.289327 10.943471 12.068343 28.495014 -22.103855 -22.084766 11.423965 -36.758421 6.311557 27.605967 -8.554196 -20.359523 -0.834448 11.874675 -11.231939 -16.668743 -22.405047 21.273881 -12.442700 -61.655552 34.683431 -38.235551 -23.050164 -26.629122 -16.375387 -21.463882 -5.487073 -10.428416 34.429995 -14.581154 4.572796 28.970343 6.353615 -0.491441 1.245127 -0.218840 18.304537 -29.868656 3.073997 97.234952 89.032666 92.963195 -29.449767 -6.625926 -22.034016 -0.152793 -0.194721 -0.092955
247.875087 57.262636 255.256717 -51.781257 -54.086698 0.544194 -3.573263 21.455502 -2.928572 -1.393637 9.485395 -1.465158 -1.393637 9.485395 -1.465158 -1.019907 7.117468 -1.074543 -9.903116 17.141955 -2.360697 -17.493513 -4.087520 -0.966681 0.282044 10.961483 12.065650 28.478115 -22.099067 -22.066924 11.431635 -36.754282 6.315869 27.595990 -8.554032 -20.369756 -0.833655 11.897462 -11.236990 -16.668133 -22.407312 21.268033 -12.465304 -61.647473 34.686833 -38.237447 -23.045012 -26.627772 -16.382676 -21.455404 -5.475195 -10.428102 34.428049 -14.581688 4.578698 28.956574 6.362593 -0.501194 1.260797 -0.225519 18.295756 -29.861220 3.093391 96.993655 89.031467 92.718282 -29.453280 -6.622984 -22.021407 -0.152279 -0.192998 -0.090583
247.873698 57.271364 255.255415 -51.775113 -54.094055 0.527524 -3.567220 21.448641 -2.915917 -1.393096 9.482241 -1.465674 -1.393096 9.482241 -1.465674 -1.019503 7.115102 -1.074946 -9.899537 17.153624 -2.369211 -17.483203 -4.067328 -0.984926 0.282614 10.976518 12.064509 28.457291 -22.097077 -22.045765 11.441114 -36.746586 6.311974 27.577843 -8.564439 -20.375161 -0.828554 11.912523 -11.246000 -16.660419 -22.402985 21.262138 -12.358000 -61.602964 34.566291 -38.295426 -23.090166 -26.572557 -16.394772 -21.446382 -5.468351 -10.428971 34.430194 -14.572584 4.572033 28.944096 6.352414 -0.502151 1.273304 -0.227310 18.289838 -29.853452 3.112452 96.817057 89.034245 92.540351 -29.455561 -6.616609 -22.006569 -0.152510 -0.192472 -0.088361
247.873737 57.278201 255.252660 -51.776475 -54.096213 0.518391 -3.560610 21.438640 -2.906060 -1.391679 9.479198 -1.464819 -1.391679 9.479198 -1.464819 -1.018465 7.112815 -1.074338 -9.896038 17.167064 -2.381033 -17.471788 -4.044271 -1.009434 0.295084 10.986397 12.067261 28.434359 -22.092641 -22.029558 11.442798 -36.734070 6.304216 27.567926 -8.574134 -20.376114 -0.834691 11.926699 -11.254729 -16.648380 -22.402576 21.261884 -12.377243 -61.605085 34.556250 -38.302438 -23.068496 -26.564123 -16.402842 -21.443130 -5.460372 -10.423966 34.429232 -14.561585 4.563944 28.942984 6.342937 -0.507015 1.278591 -0.228316 18.290509 -29.852690 3.123548 96.571122 89.035695 92.298243 -29.454680 -6.608837 -22.001135 -0.152792 -0.193370 -0.084289
247.874641 57.286304 255.252699 -51.769915 -54.107174 0.514808 -3.563077 21.432955 -2.906044 -1.391822 9.475318 -1.466025 -1.391822 9.475318 -1.466025 -1.018565 7.109907 -1.075249 -9.887709 17.179337 -2.389770 -17.452597 -4.023373 -1.029734 0.299721 11.002644 12.061570 28.420045 -22.091738 -22.008237 11.446367 -36.727650 6.296819 27.561776 -8.583212 -20.382248 -0.831713 11.943873 -11.265061 -16.643505 -22.395790 21.265568 -12.230668 -61.564262 34.402030 -38.363653 -23.110077 -26.503344 -16.407595 -21.432577 -5.468220 -10.423249 34.427677 -14.558446 4.574746 28.940615 6.348258 -0.514492 1.283672 -0.229411 18.291666 -29.833925 3.125902 95.978818 89.032487 91.705297 -29.457507 -6.604685 -21.991591 -0.152085 -0.189865 -0.081975
247.874303 57.295607 255.252709 -51.764544 -54.120852 0.514771 -3.564966 21.434207 -2.906058 -1.390072 9.472623 -1.466700 -1.390072 9.472623 -1.466700 -1.017252 7.107884 -1.075789 -9.880989 17.193576 -2.396703 -17.436877 -3.998485 -1.046413 0.306034 11.012461 12.059885 28.392645 -22.086478 -21.982186 11.458108 -36.725959 6.282810 27.557970 -8.584799 -20.385793 -0.826651 11.957604 -11.271938 -16.645846 -22.391182 21.264731 -12.230978 -61.565588 34.375330 -38.376280 -23.097232 -26.486745 -16.409205 -21.416984 -5.478255 -10.424033 34.426841 -14.553018 4.570519 28.930083 6.338565 -0.514022 1.294698 -0.226143 18.291542 -29.812289 3.124073 95.501761 89.035616 91.231032 -29.453156 -6.603260 -21.989061 -0.152214 -0.188195 -0.078638
247.873777 57.302618 255.251876 -51.765088 -54.121105 0.512967 -3.560706 21.426770 -2.903401 -1.389585 9.469453 -1.467556 -1.389585 9.469453 -1.467556 -1.016884 7.105507 -1.076446 -9.871366 17.207806 -2.402555 -17.416174 -3.973711 -1.062064 0.314486 11.020215 12.064410 28.365385 -22.083432 -21.964732 11.473320 -36.722234 6.282506 27.557822 -8.586022 -20.396715 -0.825935 11.968910 -11.272856 -16.633356 -22.388872 21.264554 -12.072144 -61.530508 34.202676 -38.439492 -23.133299 -26.417675 -16.411244 -21.415490 -5.472789 -10.428276 34.423677 -14.557847 4.575427 28.934228 6.333697 -0.512663 1.295474 -0.221062 18.302286 -29.808032 3.123574 95.142301 89.037562 90.879528 -29.452409 -6.599715 -21.985099 -0.153375 -0.186898 -0.076146
247.873155 57.309445 255.250466 -51.759830 -54.124840 0.510112 -3.560135 21.421411 -2.901081 -1.388687 9.466628 -1.467899 -1.388687 9.466628 -1.467899 -1.016216 7.103386 -1.076725 -9.860932 17.223926 -2.409613 -17.393444 -3.945657 -1.080418 0.324741 11.033014 12.062563 28.334867 -22.079719 -21.946795 11.488637 -36.728515 6.267367 27.552178 -8.591366 -20.396167 -0.826462 11.978231 -11.279473 -16.622839 -22.379836 21.264313 -12.061416 -61.540182 34.164577 -38.450440 -23.103176 -26.395616 -16.410166 -21.411480 -5.468856 -10.437560 34.422710 -14.569201 4.561806 28.934319 6.323922 -0.504322 1.298567 -0.217457 18.307163 -29.800274 3.125762 94.811637 89.031229 90.548556 -29.458497 -6.592663 -21.979804 -0.154062 -0.186718 -0.072875
247.871276 57.315600 255.248530 -51.759502 -54.125041 0.509896 -3.555880 21.414558 -2.898271 -1.388008 9.463724 -1.467469 -1.388008 9.463724 -1.467469 -1.015723 7.101206 -1.076422 -9.852747 17.237204 -2.417582 -17.374741 -3.922779 -1.099359 0.328522 11.043445 12.061804 28.312493 -22.078703 -21.933843 11.507506 -36.728829 6.256740 27.546486 -8.596465 -20.400629 -0.827344 11.978993 -11.286443 -16.613688 -22.372223 21.267272 -11.891007 -61.493868 33.978886 -38.515815 -23.141491 -26.322981 -16.408177 -21.412322 -5.466531 -10.438817 34.424880 -14.571881 4.563815 28.941573 6.325685 -0.506095 1.294480 -0.217232 18.311494 -29.796208 3.125919 94.508279 89.026908 90.249153 -29.459135 -6.590810 -21.978463 -0.153733 -0.185672 -0.071927
247.870495 57.322719 255.250135 -51.752580 -54.128861 0.512161 -3.557686 21.412611 -2.902888 -1.387940 9.462946 -1.466624 -1.387940 9.462946 -1.466624 -1.015687 7.100620 -1.075794 -9.842800 17.249191 -2.423904 -17.353440 -3.902219 -1.115699 0.320316 11.048499 12.056538 28.287988 -22.080542 -21.912748 11.536093 -36.729364 6.247270 27.548062 -8.599295 -20.401019 -0.837298 11.974967 -11.289605 -16.585280 -22.374336 21.258921 -11.884515 -61.490905 33.931678 -38.529066 -23.113046 -26.300340 -16.407672 -21.412627 -5.480979 -10.441148 34.429797 -14.572179 4.584425 28.947560 6.341619 -0.520158 1.288260 -0.222874 18.313727 -29.783475 3.117875 94.127884 89.027913 89.868434 -29.455387 -6.588440 -21.974328 -0.154903 -0.184900 -0.071347
247.868003 57.328321 255.250961 -51.748070 -54.130998 0.509253 -3.556586 21.410199 -2.897077 -1.388741 9.462130 -1.466101 -1.388741 9.462130 -1.466101 -1.016297 7.100009 -1.075392 -9.836002 17.258147 -2.430571 -17.338030 -3.887045 -1.131266 0.320564 11.051360 12.054980 28.273907 -22.074855 -21.901865 11.545152 -36.730193 6.236985 27.550992 -8.606815 -20.404948 -0.839842 11.967076 -11.297416 -16.568764 -22.368990 21.250930 -11.743574 -61.437191 33.767316 -38.589398 -23.147920 -26.225305 -16.407598 -21.414611 -5.482508 -10.444008 34.440436 -14.569927 4.570661 28.951524 6.324690 -0.508714 1.284631 -0.216790 18.310653 -29.777159 3.116394 94.021617 89.029394 89.764290 -29.451099 -6.588419 -21.974274 -0.157390 -0.185445 -0.070640
